 
<svg version="1.1" viewBox="0 0 1600 464" xmlns="http://www.w3.org/2000/svg" height="42" width="118">
    <path transform="translate(206)" d="m0 0h76l1 14 2 4c1.2-0.0232 2.41-0.0464 3.65-0.0703 1.58-0.0188 3.15-0.037 4.73-0.0547 0.794-0.0168 1.59-0.0335 2.41-0.0508 2.07-0.0176 4.15 0.0724 6.22 0.176 3.05 3.05 2.8 6.88 3.31 11 2.78 20 8.5 37.7 21 53.8 1.66 2.23 1.66 2.23 2.58 4.41 1.55 2.6 3.26 2.85 6.09 3.83 2.11 1.09 4.21 2.2 6.31 3.31 13.9 7.12 28.8 10.5 44.4 11.3 1.16 0.17 1.16 0.17 2.34 0.344 1.48 2.96 1.35 5.84 1.56 9.12 0.126 1.92 0.126 1.92 0.254 3.88 0.0606 0.987 0.121 1.97 0.184 2.99 0.601 0.0856 1.2 0.171 1.82 0.26 2.71 0.388 5.41 0.783 8.12 1.18 0.946 0.135 1.89 0.269 2.87 0.408 1.35 0.198 1.35 0.198 2.72 0.4 0.833 0.12 1.67 0.241 2.52 0.365 1.95 0.389 1.95 0.389 2.95 1.39 0.0949 2.34 0.126 4.66 0.114 7 1.46e-4 0.732 2.92e-4 1.46 4.43e-4 2.22-6.99e-4 2.43-0.00849 4.86-0.0163 7.29-0.00186 1.68-0.00329 3.36-0.00429 5.04-0.00383 4.43-0.0137 8.86-0.0247 13.3-0.0102 4.52-0.0148 9.04-0.0198 13.6-0.0107 8.87-0.0278 17.7-0.0488 26.6-1.75 0.00616-3.49 0.0105-5.24 0.0142-1.46 0.00394-1.46 0.00394-2.95 0.00797-21-0.165-42.7-5.7-61.8-14-0.679-0.291-1.36-0.582-2.06-0.882-9.81-4.25-18.9-9.3-27.8-15.1-2.86-1.93-2.86-1.93-5.1-3-1.43 2.87-1.13 5.32-1.14 8.52-0.00282 0.678-0.00564 1.36-0.00855 2.05-0.00837 2.28-0.00969 4.57-0.0111 6.85-0.00467 1.63-0.00981 3.27-0.0154 4.9-0.0113 3.53-0.0197 7.05-0.0261 10.6-0.0107 5.59-0.0309 11.2-0.0531 16.8-0.0619 15.9-0.116 31.8-0.149 47.7-0.0185 8.78-0.0475 17.6-0.088 26.3-0.0209 4.64-0.0365 9.28-0.0388 13.9-0.0266 41.2-4.93 75.8-32.5 108-0.688 0.824-1.38 1.65-2.09 2.5-8.6 9.95-18.6 17.9-29.9 24.5-0.593 0.354-1.19 0.709-1.8 1.07-32 19.1-69.6 26.1-106 17.4-18.5-4.73-35.1-12.2-50.8-23.1-0.566-0.39-1.13-0.781-1.72-1.18-1.49-1.24-1.49-1.24-3.49-4.24-2.01-1.26-2.01-1.26-4.31-2.38-3.92-2.1-6.64-4.34-9.69-7.62-1.2-1.03-2.41-2.05-3.62-3.06-2.05-1.72-3.52-3.14-5.12-5.31l-1.25-1.62h-3c-2.9-2.19-5.38-4.86-7.94-7.44-0.755-0.758-1.51-1.52-2.29-2.3-17.2-17.7-17.2-17.7-19.3-26.4-0.162-0.608-0.325-1.22-0.492-1.84l-2-1c-3.08-4.64-5.46-9.8-7.88-14.8-0.431-0.893-0.861-1.79-1.3-2.71-0.889-2.69-0.806-3.87 0.18-6.48h-2c-0.64-1.87-1.26-3.75-1.88-5.62-0.522-1.57-0.522-1.57-1.05-3.16-3.09-11-3.39-22.4-3.32-33.8-0.00773-1.31-0.0155-2.61-0.0234-3.96 0.0226-11.3 1.32-22.2 4.4-33.1 0.317-1.12 0.317-1.12 0.639-2.27 9.15-31 29.4-63.3 58-79.9 4.77-2.53 9.58-4.96 14.4-7.3 1.62-0.791 3.22-1.61 4.82-2.43 6.65-3.3 13.3-5.62 20.4-7.68 0.842-0.246 1.68-0.493 2.55-0.746 11.6-3.22 23-4.34 35-4.26 2.1 0.0109 4.19-6.7e-5 6.29-0.0127 1.34 0.00132 2.69 0.00387 4.03 0.00781 1.2 0.00226 2.4 0.00451 3.64 0.00684 2.98 0.259 2.98 0.259 5.98 2.26 0.384 2.77 0.603 5.34 0.688 8.12 0.0342 0.754 0.0683 1.51 0.104 2.29 0.0825 1.86 0.147 3.73 0.209 5.59 0.69-0.0116 1.38-0.0232 2.09-0.0352 6.06-0.0582 11.9 0.163 17.9 1.04 1.69 1.69 1.12 3.76 1.12 6.01-0.0036 0.716-0.00719 1.43-0.0109 2.17 1.46e-4 0.751 2.92e-4 1.5 4.43e-4 2.28-6.99e-4 2.49-0.00849 4.99-0.0163 7.48-0.00186 1.72-0.00329 3.45-0.00429 5.17-0.00383 4.55-0.0137 9.1-0.0247 13.6-0.0102 4.64-0.0148 9.28-0.0198 13.9-0.0107 9.11-0.0278 18.2-0.0488 27.3-0.749-0.141-1.5-0.282-2.27-0.427-0.986-0.183-1.97-0.366-2.99-0.554-0.976-0.182-1.95-0.364-2.96-0.552-18.2-3.05-35.1 2.51-50 12.7-13.5 10.6-22.5 25.8-24.8 42.8-0.811 11.1-0.432 21.7 4 32 1.51 1.72 1.51 1.72 3 3 0.708 2.12 1 3.77 1 6 0.99 0.33 1.98 0.66 3 1 0.619 0.637 1.24 1.27 1.88 1.93 7.02 6.84 20.2 8.05 29.6 8.32 17.3-0.53 33.9-7.22 46.5-19.2 6.24-6.76 10.7-13.4 14-22l1.25-3.25c2.03-7.44 1.9-14.8 1.91-22.5 0.00494-1.28 0.00988-2.57 0.015-3.89 0.0135-3.55 0.021-7.11 0.0274-10.7 0.00803-3.84 0.0217-7.67 0.0347-11.5 0.0217-6.64 0.0399-13.3 0.0556-19.9 0.0227-9.6 0.0509-19.2 0.0803-28.8 0.0476-15.6 0.0909-31.2 0.131-46.7 0.0394-15.1 0.0808-30.3 0.125-45.4 0.00409-1.4 0.00409-1.4 0.00826-2.83 0.0137-4.68 0.0274-9.36 0.0411-14 0.114-38.8 0.22-77.6 0.323-116z" fill="#000002"/>
    <path transform="translate(1264 181)" d="m0 0c3.88 0.0215 7.75 8.51e-5 11.6-0.0254 23.9-0.0282 44.1 3.14 64.8 15.5l2 2c2.25 1.85 4.5 3.65 6.89 5.31 5.15 3.62 8.6 7.48 12.1 12.7 0.481 0.69 0.962 1.38 1.46 2.09 1.56 2.28 3.06 4.58 4.54 6.91 0.853 1.32 0.853 1.32 1.72 2.68 10.2 16.5 14.9 34.4 14.7 53.8-0.0109 1.27-0.0218 2.54-0.033 3.85-0.451 26.6-11.2 48.7-29.9 67.3-12.1 11.7-32.7 25-50 25.5-0.793-0.0245-1.59-0.049-2.4-0.0742-2.78 0-4.9 0.371-7.59 0.979-5.04 1.03-9.84 1.34-15 1.36-0.878 0.00666-1.76 0.0133-2.66 0.0202-1.85 0.0101-3.69 0.0148-5.54 0.0145-2.77 0.00435-5.53 0.0407-8.3 0.0786-9.58 0.0576-18.4-0.504-27.6-3.13-3.54-1-5.79-1.44-9.31-0.316-2.71-0.679-5.2-1.43-7.81-2.38-0.75-0.27-1.5-0.539-2.27-0.817-22-8.29-44.1-26.2-53.9-47.8-0.333-1.67-0.667-3.33-1-5-0.66-0.33-1.32-0.66-2-1-9.51-15.2-11-37.4-7.38-54.6 0.177-0.858 0.354-1.72 0.536-2.6 3.96-18.3 11.2-33.2 22.8-47.8 0.503-0.659 1.01-1.32 1.52-2 21.9-27.4 55.4-32.7 88.1-32.5zm-15.6 54.5c-1.11 0.493-1.11 0.493-2.24 0.996-13.5 6.73-22 18-26.8 32-3.35 10.4-1.27 23.2 3 33 1.77 3.21 3.75 6.11 6 9l2.25 3.12c8.63 9.02 20.5 15.2 33.1 16.1 13.1 0.264 23.9-2.64 34.7-10.2 0.636-0.44 1.27-0.879 1.93-1.33 9.18-7.07 15.3-19.3 17.1-30.7 1.2-15.6-2.89-27.8-12.6-40-8.13-8.93-19.9-14.7-31.9-15.3-8.48-0.246-16.7-0.301-24.5 3.28zm56 141c2.47-0.344 2.47-0.344 5-1l1-2c-2.76 0-3.89 1.31-6 3z" fill="#000002"/>
    <path transform="translate(778 136)" d="m0 0c1.01 0.00222 2.02 0.00444 3.06 0.00673 1.74 1.81e-4 1.74 1.81e-4 3.51 3.66e-4 1.84 0.00767 1.84 0.00767 3.71 0.0155 1.12 0.00101 2.24 0.00201 3.39 0.00305 4.2 0.00525 8.4 0.0192 12.6 0.0321l28.4 0.0625v113c6.81-5.88 6.81-5.88 12.4-12.4 34.2-44 34.2-44 57.2-47.3 19.3-2.15 39.3-0.0962 58.4 2.68-1.33 2.76-2.58 4.84-4.75 7.02-0.789 0.793-0.789 0.793-1.59 1.6-0.82 0.808-0.82 0.808-1.66 1.63-0.547 0.554-1.09 1.11-1.66 1.68-4.09 4.07-4.09 4.07-6.34 4.07v2c-1.26 1.23-1.26 1.23-3.12 2.75-4.03 3.43-7.78 7.06-11.5 10.8-0.595 0.599-1.19 1.2-1.8 1.81-1.86 1.87-3.72 3.75-5.57 5.62-14.2 14.3-14.2 14.3-20.3 19.6-2.69 2.32-5.18 4.84-7.67 7.38-0.489 0.493-0.977 0.986-1.48 1.49-1.18 1.19-2.35 2.38-3.52 3.57 2.85 5.17 5.99 9.96 9.44 14.8 4.38 6.14 8.69 12.3 12.9 18.6 6.79 9.96 13.7 19.8 20.6 29.7 0.519 0.74 1.04 1.48 1.57 2.24 5.04 7.18 10.1 14.3 15.3 21.4 5.11 7.02 10.1 14.1 15 21.3 0.522 0.772 1.04 1.54 1.58 2.34 0.474 0.713 0.949 1.43 1.44 2.16 0.42 0.629 0.84 1.26 1.27 1.91 0.895 1.59 0.895 1.59 0.895 3.59-7.8 0.538-15.6 0.944-23.4 1.19-3.63 0.119-7.25 0.28-10.9 0.543-23.3 1.65-23.3 1.65-30.5-3.9-4.93-5.36-8.36-11.4-11.6-17.9-2.47-4.68-5.57-8.87-8.68-13.1-1.15-1.63-2.3-3.27-3.44-4.91-0.565-0.806-1.13-1.61-1.71-2.44-1.76-2.52-3.53-5.04-5.29-7.56-7.45-10.7-14.9-21.3-22.4-31.9-3.78 2.41-7.03 4.81-10.1 8.06-3.62 3.79-3.62 3.79-5.96 5.17-2.18 1.66-2.18 1.66-2.43 4.56-0.0133 1.7-0.0133 1.7-0.0269 3.43-0.0197 1.28-0.0394 2.56-0.0598 3.88-0.00166 1.4-0.00289 2.8-0.00372 4.2-0.015 1.43-0.0317 2.86-0.0501 4.29-0.0437 3.76-0.0637 7.53-0.0787 11.3-0.0196 3.84-0.0615 7.68-0.102 11.5-0.0753 7.53-0.126 15.1-0.16 22.6-7.41 0.0231-14.8 0.0409-22.2 0.0518-3.44 0.00523-6.89 0.0123-10.3 0.0236-3.95 0.0129-7.91 0.0178-11.9 0.0222-1.86 0.00774-1.86 0.00774-3.76 0.0156-1.71 1.13e-4 -1.71 1.13e-4 -3.46 2.29e-4 -1.01 0.00222-2.02 0.00444-3.06 0.00673-2.28-0.12-2.28-0.12-3.28-1.12-0.1-3.11-0.134-6.19-0.127-9.3-0.00156-0.988-0.00312-1.98-0.00473-3-0.00401-3.34-8.19e-4 -6.68 0.00232-10-0.00135-2.38-0.00313-4.77-0.00531-7.15-0.0041-5.82-0.00348-11.6-5.87e-4 -17.4 0.00225-4.72 0.00257-9.45 0.00148-14.2-1.53e-4 -0.671-3.06e-4 -1.34-4.64e-4 -2.03-3.2e-4 -1.36-6.44e-4 -2.73-9.73e-4 -4.09-0.00285-12.8 4.32e-4 -25.6 0.0058-38.4 0.00447-11 0.00369-22-9.19e-4 -33-0.00535-12.8-0.00746-25.5-0.00439-38.3 3.19e-4 -1.36 6.33e-4 -2.72 9.43e-4 -4.08 1.54e-4 -0.668 3.09e-4 -1.34 4.68e-4 -2.03 8.65e-4 -4.72-5.98e-4 -9.44-0.00295-14.2-0.00288-6.35-9.05e-4 -12.7 0.00489-19 0.00133-2.34 9.32e-4 -4.68-0.00126-7.01-0.00271-3.18 6.66e-4 -6.35 0.00568-9.53-0.00223-0.938-0.00446-1.88-0.00676-2.84 0.0229-7.4 0.0229-7.4 3.42-7.58z" fill="#000002"/>
    <path transform="translate(1405,136)" d="m0 0h57v113c6.81-5.88 6.81-5.88 12.4-12.4 34.2-44 34.2-44 57.2-47.3 19.3-2.15 39.3-0.0962 58.4 2.68-1.43 2.98-2.85 5.1-5.19 7.45-0.616 0.619-1.23 1.24-1.87 1.88-0.642 0.634-1.28 1.27-1.95 1.92-0.642 0.65-1.28 1.3-1.95 1.97-0.616 0.614-1.23 1.23-1.87 1.86-0.563 0.561-1.13 1.12-1.71 1.7-1.48 1.22-1.48 1.22-3.48 1.22v2c-1.26 1.24-1.26 1.24-3.13 2.75-4.03 3.43-7.77 7.07-11.5 10.8-0.587 0.593-1.17 1.19-1.78 1.8-2.46 2.48-4.91 4.97-7.36 7.46-1.8 1.83-3.62 3.66-5.43 5.49-0.833 0.853-0.833 0.853-1.68 1.72-1.34 1.35-2.74 2.65-4.14 3.94h-2v2c-1.47 1.45-1.47 1.45-3.5 3.12-4.41 3.74-8.47 7.74-12.5 11.9 9.04 14.6 19 28.6 28.9 42.7 3.69 5.26 7.35 10.5 11 15.9 3.58 5.23 7.24 10.4 11 15.5 7.64 10.5 15 21.2 22.4 31.9 0.668 0.966 1.34 1.93 2.03 2.93 0.615 0.899 1.23 1.8 1.86 2.73 0.552 0.803 1.1 1.61 1.67 2.43 1.19 1.98 1.19 1.98 1.19 3.98-7.89 0.373-15.8 0.656-23.7 0.829-3.67 0.0831-7.33 0.195-11 0.378-23.6 1.14-23.6 1.14-29.7-2.7-3.69-3.64-5.87-7.85-7.83-12.6-1.04-2.42-2.43-4.4-4.02-6.48-0.65-0.918-0.65-0.918-1.31-1.85-0.426-0.6-0.852-1.2-1.29-1.82-4.37-6.17-8.73-12.4-13.1-18.6-0.578-0.827-1.16-1.65-1.75-2.51-1.79-2.56-3.58-5.12-5.37-7.68-2.52-3.6-5.04-7.21-7.56-10.8-0.572-0.818-1.14-1.64-1.73-2.48-3.21-4.59-6.44-9.16-9.71-13.7-4.7 2.82-8.29 6.14-12.1 10.1-1.93 1.9-1.93 1.9-4.02 3.13-2.18 1.66-2.18 1.66-2.43 4.56-0.0133 1.7-0.0133 1.7-0.0269 3.43-0.0197 1.28-0.0394 2.56-0.0598 3.88-0.00166 1.4-0.00289 2.8-0.00372 4.2-0.015 1.43-0.0317 2.86-0.0501 4.29-0.0437 3.76-0.0637 7.53-0.0787 11.3-0.023 4.52-0.0754 9.03-0.123 13.5-0.0689 6.86-0.1 13.7-0.139 20.6h-57v-244z" fill="#000002"/>
    <path transform="translate(502 136)" d="m0 0c1.06 0.00437 1.06 0.00437 2.15 0.00883 0.748-8.54e-4 1.5-0.00171 2.27-0.00259 2.53-0.00166 5.05 0.00387 7.58 0.00932 1.8 2.82e-4 3.61 1.24e-4 5.41-4.43e-4 4.91-2.88e-4 9.82 0.00561 14.7 0.0126 5.13 0.00623 10.3 0.00684 15.4 0.00803 9.71 0.00311 19.4 0.0113 29.1 0.0213 11.1 0.0112 22.1 0.0167 33.2 0.0217 22.8 0.0105 45.5 0.0281 68.3 0.0503-2.04 9.46-2.04 9.46-3.4 13.8-0.257 0.814-0.514 1.63-0.778 2.47-0.406 1.27-0.406 1.27-0.821 2.56-0.283 0.893-0.567 1.79-0.859 2.7-0.594 1.87-1.19 3.74-1.79 5.6-0.917 2.87-1.83 5.73-2.74 8.6-0.58 1.82-1.16 3.64-1.74 5.46-0.273 0.858-0.546 1.72-0.827 2.6-0.254 0.792-0.507 1.58-0.769 2.4-0.223 0.697-0.445 1.39-0.675 2.11-0.6 1.74-0.6 1.74-1.6 3.74h-49v192h-59v-193h-59c-1.61-1.61-1.13-3.36-1.13-5.6-0.00315-0.978-0.0063-1.96-0.00955-2.96 0.00202-1.06 0.00405-2.13 0.00613-3.22-9.57e-4 -1.08-0.00191-2.17-0.0029-3.28-6.82e-4 -2.3 0.00117-4.59 0.00534-6.89 0.00535-3.53 5.56e-5 -7.06-0.00635-10.6 6.61e-4 -2.23 0.00194-4.45 0.00391-6.68-0.00202-1.06-0.00405-2.13-0.00613-3.22 0.00315-0.978 0.0063-1.96 0.00955-2.96 7.96e-4 -0.865 0.00159-1.73 0.00241-2.62 0.254-3.95 2.66-3.09 6.05-3.1z" fill="#000002"/>
    <path transform="translate(985,136)" d="m0 0h184c-1.86 6.82-3.74 13.6-5.88 20.3-0.26 0.821-0.519 1.64-0.787 2.49-0.816 2.58-1.64 5.15-2.46 7.73-0.556 1.76-1.11 3.51-1.67 5.27-3.94 12.4-3.94 12.4-5.21 16.2h-49v192h-59v-193h-60v-51z" fill="#000002"/>
    <path transform="translate(390,124)" d="m0 0c6.76-0.114 13.3 0.028 20 1 1.66 1.66 1.12 3.67 1.12 5.88-0.0036 0.698-0.00719 1.4-0.0109 2.11 1.46e-4 0.732 2.92e-4 1.46 4.43e-4 2.22-6.99e-4 2.43-0.00849 4.86-0.0163 7.29-0.00186 1.68-0.00329 3.36-0.00429 5.04-0.00383 4.43-0.0137 8.86-0.0247 13.3-0.0102 4.52-0.0148 9.04-0.0198 13.6-0.0107 8.87-0.0278 17.7-0.0488 26.6-1.75 0.00616-3.49 0.0105-5.24 0.0142-1.46 0.00394-1.46 0.00394-2.95 0.00797-21-0.165-42.7-5.7-61.8-14-0.679-0.291-1.36-0.582-2.06-0.882-9.81-4.25-18.9-9.3-27.8-15.1-2.86-1.93-2.86-1.93-5.1-3-1.43 2.87-1.13 5.32-1.14 8.52-0.00282 0.678-0.00564 1.36-0.00855 2.05-0.00837 2.28-0.00969 4.57-0.0111 6.85-0.00467 1.63-0.00981 3.27-0.0154 4.9-0.0113 3.53-0.0197 7.05-0.0261 10.6-0.0107 5.59-0.0309 11.2-0.0531 16.8-0.0619 15.9-0.116 31.8-0.149 47.7-0.0185 8.78-0.0475 17.6-0.088 26.3-0.0209 4.64-0.0365 9.28-0.0388 13.9-0.0266 41.2-4.93 75.8-32.5 108-0.688 0.824-1.38 1.65-2.09 2.5-8.6 9.95-18.6 17.9-29.9 24.5-0.593 0.354-1.19 0.709-1.8 1.07-32 19.1-69.6 26.1-106 17.4-19.9-5.09-37.4-13.5-54-25.5l1-2 3.19 1.75c4.74 2.39 9.67 3.85 14.8 5.32 3.05 0.93 3.05 0.93 5.43 1.98 3.59 1.3 7.15 1.67 10.9 2.08 1.11 0.13 1.11 0.13 2.24 0.262 1.81 0.211 3.63 0.413 5.44 0.613l1 3c0.531-0.165 1.06-0.33 1.61-0.5 2.95-0.617 5.65-0.558 8.67-0.492 1.24 0.0168 2.47 0.0335 3.75 0.0508 2.57 0.0437 5.15 0.0955 7.72 0.156 7.53 0.0855 14.2-0.6 21.5-2.49 3.14-0.814 6.25-1.28 9.47-1.66 5.12-0.724 9.42-2.06 14.1-4.26 2.53-0.917 4.55-0.946 7.22-0.805v-3c0.69-0.103 1.38-0.206 2.09-0.312 9.93-2.35 18.6-8.6 26.5-14.9 2.43-1.82 2.43-1.82 5.43-2.82 1.71-1.62 3.37-3.3 5-5 0.813-0.802 1.63-1.6 2.46-2.43 8.86-8.46 8.86-8.46 15.5-18.6 0.978-1.02 1.98-2.02 3-3 3.07-3.46 5.08-6.96 7.07-11.1 1.17-2.39 2.56-4.62 3.93-6.91 1.39-2.64 2.71-5.31 4-8l1.56-3.25c1.74-4.12 2.68-8.44 3.69-12.8 0.746-2.96 0.746-2.96 1.72-5.79 3.47-10.8 3.32-22.1 3.33-33.3 0.00768-1.68 0.0162-3.37 0.0256-5.05 0.0181-3.6 0.0303-7.19 0.0375-10.8 0.0116-5.69 0.037-11.4 0.0643-17.1 0.0415-8.98 0.074-18 0.102-26.9 0.0512-16.1 0.113-32.2 0.185-48.4 0.0249-5.66 0.0444-11.3 0.0594-17 0.0102-3.51 0.0243-7.01 0.0395-10.5 0.00617-1.63 0.0106-3.26 0.0133-4.89 0.00379-2.22 0.0136-4.43 0.0249-6.65 0.00385-1.24 0.00771-2.48 0.0117-3.76 0.133-2.88 0.133-2.88 1.13-4.88 3.09 0.641 5.51 1.69 8.25 3.25 0.798 0.452 1.6 0.905 2.42 1.37 2 1.18 3.95 2.42 5.89 3.69 27.4 17.2 57.7 22.2 89.4 24.7-0.00222-0.71-0.00444-1.42-0.00673-2.15-0.02-6.68-0.0353-13.4-0.0451-20-0.00522-3.43-0.0123-6.87-0.0236-10.3-0.0129-3.95-0.0178-7.89-0.0222-11.8-0.00516-1.24-0.0103-2.47-0.0156-3.75-1.13e-4 -1.71-1.13e-4 -1.71-2.29e-4 -3.46-0.00222-1.01-0.00444-2.02-0.00673-3.06 0.12-2.4 0.12-2.4 1.12-4.4z" fill="#FC0954"/>
    <path transform="translate(206)" d="m0 0h76l1 18c-2.53 1.26-4.26 1.12-7.09 1.11-1.59-1.13e-4 -1.59-1.13e-4 -3.21-2.29e-4 -1.15-0.00516-2.3-0.0103-3.48-0.0156-1.17-0.00141-2.35-0.00283-3.56-0.00429-3.76-0.00561-7.52-0.0182-11.3-0.0309-2.54-0.00501-5.09-0.00958-7.63-0.0137-6.25-0.011-12.5-0.0278-18.7-0.0488 0.00114 0.965 0.00114 0.965 0.0023 1.95 0.0448 38.2 0.0791 76.3 0.0998 115 0.0025 4.59 0.00509 9.18 0.00773 13.8 5.25e-4 0.914 0.00105 1.83 0.00159 2.77 0.00869 14.8 0.0244 29.5 0.0429 44.3 0.0187 15.2 0.0298 30.3 0.0339 45.5 0.00274 9.35 0.0114 18.7 0.0277 28 0.0106 6.42 0.0138 12.8 0.0112 19.3-0.00127 3.7 5.92e-4 7.4 0.0114 11.1 0.124 44.8 0.124 44.8-10.2 58.8-0.454 0.648-0.908 1.3-1.38 1.96-3.17 4.43-6.36 7.67-10.6 11-0.908 0.928-1.82 1.86-2.75 2.81-2.25 2.19-2.25 2.19-4.25 2.19v2c-2.33 1.13-4.66 2.26-7 3.38-0.648 0.317-1.3 0.634-1.96 0.961-15.4 7.32-32.1 6.79-48.2 1.91-8.86-3.16-15.8-8.03-23-14-0.581-0.484-1.16-0.968-1.76-1.47-1.41-1.21-2.77-2.49-4.11-3.78v-2c0.545 0.193 1.09 0.387 1.65 0.586 0.754 0.26 1.51 0.521 2.29 0.789 0.731 0.255 1.46 0.51 2.21 0.773 19 5.67 37.6 4.34 55.2-4.77 2.92-1.66 3.74-2.46 5.69-5.38 0.626-0.307 1.25-0.614 1.9-0.93 2.59-1.32 3.9-2.95 5.73-5.2 1.08-1.33 2.2-2.63 3.38-3.88h2l0.781-2.56c1.52-4.28 3.56-8.21 5.65-12.2 5.3-10.3 5.72-19.6 5.72-30.9 0.00494-1.28 0.00988-2.57 0.015-3.89 0.0135-3.55 0.021-7.11 0.0274-10.7 0.00803-3.84 0.0217-7.67 0.0347-11.5 0.0217-6.64 0.0399-13.3 0.0556-19.9 0.0227-9.6 0.0509-19.2 0.0803-28.8 0.0476-15.6 0.0909-31.2 0.131-46.7 0.0394-15.1 0.0808-30.3 0.125-45.4 0.00272-0.933 0.00545-1.87 0.00826-2.83 0.0137-4.68 0.0274-9.36 0.0411-14 0.114-38.8 0.22-77.6 0.323-116z" fill="#00F3EC"/>
    <path transform="translate(692,214)" d="m0 0h58v166h-58v-166z" fill="#000002"/>
    <path transform="translate(140 164)" d="m0 0c2.1 0.0109 4.19-6.7e-5 6.29-0.0127 1.34 0.00132 2.69 0.00387 4.03 0.00781 1.2 0.00226 2.4 0.00451 3.64 0.00684 2.98 0.259 2.98 0.259 5.98 2.26 0.221 2.79 0.281 5.35 0.188 8.12-0.0135 0.754-0.0271 1.51-0.041 2.29-0.0354 1.86-0.0892 3.73-0.146 5.59-2.59 1.3-5.06 1.31-7.92 1.54-15.7 1.32-30.8 4.77-45.1 11.5-0.782 0.327-1.56 0.655-2.37 0.992-11.8 4.95-28.5 13.3-35.6 24h-3c-0.268 0.639-0.536 1.28-0.812 1.94-1.19 2.06-1.19 2.06-4.19 3.06-0.699 1.32-1.36 2.65-2 4-1.42 1.84-2.88 3.65-4.38 5.44-1.54 1.85-3.08 3.71-4.62 5.56-0.699 0.84-1.4 1.68-2.12 2.55-3.2 4.17-5.46 8.8-7.88 13.5-0.32 0.603-0.641 1.21-0.971 1.83-9.14 17.2-13.3 33.9-16 53.2-0.106 0.738-0.212 1.48-0.321 2.24-1.58 11.7-0.903 22.6 1.54 34.1 0.673 3.16 1.22 6.31 1.72 9.5 1.03 5.67 2.92 10.9 5.06 16.2 0.383 0.981 0.766 1.96 1.16 2.97 3.82 9.51 8.26 18.2 14.6 26.3 2.34 3.2 3.26 5.78 3.26 9.71-9.06-8.57-17.9-17.1-25.1-27.4-0.493-0.706-0.987-1.41-1.5-2.14-3.31-4.91-3.31-4.91-3.95-7.64-0.245-0.913-0.245-0.913-0.494-1.85-0.66-0.33-1.32-0.66-2-1-3.08-4.64-5.46-9.8-7.88-14.8-0.431-0.893-0.861-1.79-1.3-2.71-0.889-2.69-0.806-3.87 0.18-6.48h-2c-0.64-1.87-1.26-3.75-1.88-5.62-0.348-1.04-0.696-2.09-1.05-3.16-3.09-11-3.39-22.4-3.32-33.8-0.00773-1.31-0.0155-2.61-0.0234-3.96 0.0226-11.3 1.32-22.2 4.4-33.1 0.211-0.748 0.422-1.5 0.639-2.27 9.15-31 29.4-63.3 58-79.9 4.77-2.53 9.58-4.96 14.4-7.3 1.62-0.791 3.22-1.61 4.82-2.43 6.65-3.3 13.3-5.62 20.4-7.68 0.842-0.246 1.68-0.493 2.55-0.746 11.6-3.22 23-4.34 35-4.26z" fill="#00F0E9"/>
    <path transform="translate(161,183)" d="m0 0c3.31-0.0289 6.62-0.0468 9.94-0.0625 0.946-0.00838 1.89-0.0168 2.87-0.0254 1.35-0.00483 1.35-0.00483 2.72-0.00977 1.25-0.00786 1.25-0.00786 2.52-0.0159 1.95 0.114 1.95 0.114 2.95 1.11 0.095 2.4 0.126 4.78 0.114 7.18 1.46e-4 0.751 2.92e-4 1.5 4.43e-4 2.28-6.99e-4 2.49-0.00849 4.99-0.0163 7.48-0.00186 1.72-0.00329 3.45-0.00429 5.17-0.00383 4.55-0.0137 9.1-0.0247 13.6-0.0102 4.64-0.0148 9.28-0.0198 13.9-0.0107 9.11-0.0278 18.2-0.0488 27.3-0.749-0.141-1.5-0.282-2.27-0.427-0.986-0.183-1.97-0.366-2.99-0.554-0.976-0.182-1.95-0.364-2.96-0.552-18.2-3.05-35.1 2.51-50 12.7-13.5 10.6-22.5 25.8-24.8 42.8-0.811 11.1-0.432 21.7 4 32 1.51 1.72 1.51 1.72 3 3 0.708 2.12 1 3.77 1 6 0.315 1.34 0.646 2.67 1 4-3.41-1.93-6.74-3.83-10-6v-2c-0.99-0.33-1.98-0.66-3-1-1.89-2.3-3.65-4.58-5.38-7-0.739-1.03-0.739-1.03-1.49-2.08-1.39-1.96-2.77-3.94-4.13-5.92-0.57-0.815-1.14-1.63-1.73-2.47-7.71-12.3-8.05-29.7-5.24-43.6 2.68-11.5 8.46-22.6 17-30.9 0.57-0.58 1.14-1.16 1.73-1.76 5.42-5.15 11.5-8.12 18.3-11.2 0.938-0.517 1.88-1.03 2.84-1.57 3.82-1.73 7.42-2.45 11.5-3.12 0.717-0.13 1.43-0.259 2.17-0.393 7.26-1.24 14-1.16 21.3 0.0176 1.11 0.174 2.22 0.348 3.37 0.527 2.76 0.535 2.76 0.535 4.76 1.54-0.00222-0.722-0.00444-1.44-0.00673-2.19-0.02-6.8-0.0353-13.6-0.0451-20.4-0.00522-3.5-0.0123-6.99-0.0236-10.5-0.0129-4.02-0.0178-8.03-0.0222-12-0.00516-1.26-0.0103-2.52-0.0156-3.81-7.55e-5 -1.16-1.51e-4 -2.32-2.29e-4 -3.52-0.00222-1.03-0.00444-2.05-0.00673-3.11 0.12-2.44 0.12-2.44 1.12-4.44z" fill="#FC0954"/>
    <path transform="translate(1309 184)" d="m0 0c9.88 2.15 18.3 6.13 27.1 11 0.767 0.369 1.53 0.737 2.32 1.12 1.68 0.883 1.68 0.883 3.68 2.88 2.25 1.85 4.5 3.65 6.89 5.31 5.15 3.62 8.6 7.48 12.1 12.7 0.481 0.69 0.962 1.38 1.46 2.09 1.56 2.28 3.06 4.58 4.54 6.91 0.568 0.883 1.14 1.77 1.72 2.68 10.2 16.5 14.9 34.4 14.7 53.8-0.0109 1.27-0.0218 2.54-0.033 3.85-0.451 26.6-11.2 48.7-29.9 67.3-12.2 11.8-32.8 25-50.2 25.5-0.731-0.0245-1.46-0.049-2.21-0.0742 3-2 3-2 5.5-2.94 2.49-0.863 2.49-0.863 3.85-2.47 2-1.94 4.03-2.92 6.52-4.16 17.3-9.21 34.1-24.9 41.1-43.4 0.46-0.718 0.92-1.44 1.39-2.18 10.9-19.2 11.3-45.9 5.61-66.8-4.47-15.6-11.3-31.7-23.2-43.1-1.8-1.89-1.8-1.89-1.8-3.89-0.576-0.269-1.15-0.539-1.75-0.816-2.29-1.2-4.25-2.56-6.32-4.12-0.672-0.504-1.34-1.01-2.04-1.53-1.9-1.54-1.9-1.54-3.28-2.98-3-2.86-6.74-4.56-10.4-6.49-0.84-0.446-1.68-0.892-2.55-1.35-7.37-3.78-14.6-6.09-22.7-7.71 5.54-3.69 11.6-2.2 17.9-0.971z" fill="#F70853"/>
    <path transform="translate(1250,183)" d="m0 0v1c-0.557 0.0374-1.11 0.0748-1.69 0.113-5.59 0.482-10.2 1.72-15.3 3.89-0.806 0.312-1.61 0.624-2.44 0.945-8.39 3.25-16 7.16-23.6 12.1l-3.19 2c-4.95 3.52-8.69 7.95-12.5 12.6-0.44 0.447-0.879 0.895-1.33 1.36h-2l-2 5h-2l-0.688 2c-1.09 2.49-2.22 4.49-3.69 6.75-9.91 15.5-14.2 33.8-14.1 52.1 0.00685 1.32 0.0137 2.63 0.0208 3.99 0.232 14 2.92 25.7 9.42 38.2 0.772 1.57 0.772 1.57 1.56 3.18 5.06 9.95 11.5 18 19.4 25.8 0.709 0.706 1.42 1.41 2.15 2.14 4.86 4.6 9.89 8.36 15.6 11.8 0.626 0.377 1.25 0.755 1.9 1.14 2.86 1.67 5.57 2.99 8.72 4.04 2.63 0.879 2.63 0.879 4.01 3l0.625 1.88c-21.5-1.27-42.2-17.6-56-33-5.82-7.18-11.2-13.8-13-23l-2-1c-9.51-15.2-11-37.4-7.38-54.6 0.177-0.858 0.354-1.72 0.536-2.6 3.96-18.3 11.2-33.2 22.8-47.8 0.503-0.659 1.01-1.32 1.52-2 14.5-18.2 37.7-28.5 60.2-31.8 4.83-0.494 9.51-0.122 14.3 0.768z" fill="#00EAE4"/>
    <path transform="translate(738 141)" d="m0 0c6.85 5.84 11.4 11.9 12.5 21.1 0.286 8.04-1.99 15.6-7.05 22-5.79 6.12-13.4 9.33-21.8 9.56-8.39-0.132-15.1-2.7-21.4-8.21-5.38-5.84-7.66-12.6-8.28-20.5 0.678-10.3 4.48-16.9 12.2-23.8 10.1-6.82 23.7-7.18 33.7-0.0781z" fill="#000002"/>
    <path transform="translate(285,18)" d="m0 0c2.79-0.0538 5.58-0.0936 8.38-0.125 0.794-0.0168 1.59-0.0335 2.41-0.0508 2.07-0.0176 4.15 0.0724 6.22 0.176 3.05 3.05 2.8 6.88 3.31 11 2.96 21.2 9.47 39 22.7 56l2 3c-6.36-2.94-11.2-8.04-16-13-0.657-0.612-1.31-1.22-1.99-1.86-14.3-13.6-25.7-33.2-28-53.1l1-2z" fill="#FB0954"/>
    <path transform="translate(338,93)" d="m0 0c2.61 0.996 5.14 2.06 7.69 3.19 12 5.09 23.6 8.09 36.6 9.13 1.91 0.164 3.82 0.415 5.72 0.682 1.53 3.07 1.1 6.27 1.06 9.62-0.00451 0.706-0.00902 1.41-0.0137 2.14-0.0118 1.74-0.0297 3.49-0.0488 5.23-14-3-28-8.67-39-18l-2.25-1.12c-1.75-0.875-1.75-0.875-2.75-2.88l-2.31-1.38c-2.67-1.62-4.57-3.35-6.69-5.62l2-1z" fill="#00E1DB"/>
    <path transform="translate(1229,378)" d="m0 0 4 1z" fill="#00F4ED"/>
    <path transform="translate(1298,379)" d="m0 0c3 1 3 1 3 1z" fill="#FD0955"/>
    <path transform="translate(1235,379)" d="m0 0 2 1z" fill="#00F4ED"/>

</svg>
